<svg width="16" height="26" viewBox="0 0 15.844 26.0003" fill="none" xmlns="http://www.w3.org/2000/svg"><path d="M9.34394 2.4375C9.34394 3.78369 8.25263 4.875 6.90644 4.875C5.56025 4.875 4.46894 3.78369 4.46894 2.4375C4.46894 1.09131 5.56025 0 6.90644 0C8.25263 0 9.34394 1.09131 9.34394 2.4375Z" fill="black"/><path d="M4.37053 6.09656C4.60181 5.83637 4.93332 5.6875 5.28144 5.6875H7.62893C8.83488 5.6875 9.77526 6.73206 9.64901 7.93139L8.9508 14.5644C8.92777 14.7832 8.87944 14.9986 8.80677 15.2062L8.29145 16.6785L8.63614 17.0724C8.7109 17.1579 8.77335 17.2533 8.82169 17.3561L12.0717 24.2623C12.3583 24.8713 12.0969 25.5974 11.4879 25.884C10.8788 26.1706 10.1528 25.9092 9.86619 25.3002L6.68905 18.5488L3.95799 15.4276C3.74902 15.1887 3.64145 14.8778 3.65812 14.5609L3.88157 10.3156L3.17583 11.1095L2.42111 15.6379C2.31045 16.3018 1.68252 16.7503 1.01858 16.6397C.35464 16.529 -.093884 15.9011 .016773 15.2371L.829273 10.3621C.867021 10.1356 .967986 9.92442 1.12054 9.75281L4.37053 6.09656Z" fill="black"/><path d="M4.06276 19.0854V16.7811L6.01868 19.0164L6.44379 19.8666C6.40117 20.0017 6.33504 20.1292 6.24752 20.243L2.18502 25.5243C1.77462 26.0578 1.00944 26.1576 .475924 25.7472C-.057589 25.3368 -.157396 24.5716 .252999 24.0381L4.06276 19.0854Z" fill="black"/><path d="M10.9197 12.2367L10.1172 11.4342L10.45 8.43896C10.4541 8.40251 10.4574 8.36615 10.4601 8.32991L12.2863 10.1562H14.6253C15.2984 10.1562 15.844 10.7018 15.844 11.3749C15.844 12.048 15.2984 12.5937 14.6253 12.5937H11.7815C11.4583 12.5937 11.1483 12.4653 10.9197 12.2367Z" fill="black"/></svg>
